<svg xmlns="http://www.w3.org/2000/svg" xmlns:xlink="http://www.w3.org/1999/xlink" viewBox="0,0,256,256" width="64px" height="64px"><g transform="translate(93.44,93.44) scale(0.27,0.27)"><g fill="#ffffff" fill-rule="nonzero" stroke="none" stroke-width="1" stroke-linecap="butt" stroke-linejoin="miter" stroke-miterlimit="10" stroke-dasharray="" stroke-dashoffset="0" font-family="none" font-weight="none" font-size="none" text-anchor="none" style="mix-blend-mode: normal"><g transform="scale(3.55556,3.55556)"><path d="M61.48633,6.57617c-1.0235,0 -2.04617,0.39087 -2.82617,1.17188l-4.06641,4.06641l-1.06055,-1.06055c-2.729,-2.729 -7.17139,-2.729 -9.90039,0l-7.24805,7.24805l-0.70703,-0.70703c-1.562,-1.562 -4.09425,-1.562 -5.65625,0c-1.562,1.562 -1.562,4.09425 0,5.65625l1.67383,1.67383l-2.38281,2.38281c-1.562,1.562 -1.562,4.09425 0,5.65625c1.561,1.563 4.09625,1.562 5.65625,0l2.38281,-2.38281l4.82227,4.82422l-1.88672,1.88672c-1.562,1.562 -1.562,4.0962 0,5.6582c1.564,1.563 4.09725,1.562 5.65625,0l1.88867,-1.88867l1.2793,1.28125c1.562,1.562 4.0962,1.562 5.6582,0c1.562,-1.562 1.562,-4.09425 0,-5.65625l-0.70703,-0.70703l7.24805,-7.24805c2.729,-2.729 2.729,-7.17139 0,-9.90039l-1.0625,-1.06055l4.06641,-4.06641c1.562,-1.562 1.562,-4.09425 0,-5.65625c-0.781,-0.781 -1.80463,-1.17187 -2.82812,-1.17187zM19.98438,29.04102c-1.02375,0 -2.04713,0.39088 -2.82812,1.17188c-1.562,1.562 -1.562,4.09425 0,5.65625l0.70703,0.70703l-7.24805,7.24805c-2.729,2.729 -2.729,7.16944 0,9.89844l1.06055,1.06055l-4.06641,4.06641c-1.562,1.562 -1.562,4.0962 0,5.6582c1.562,1.562 4.0962,1.562 5.6582,0l4.06445,-4.06641l1.0625,1.06055c2.729,2.729 7.17139,2.729 9.90039,0l7.24805,-7.24805l0.70508,0.70703c1.562,1.562 4.0962,1.562 5.6582,0c1.562,-1.562 1.562,-4.09425 0,-5.65625l-19.09375,-19.0918c-0.781,-0.781 -1.80438,-1.17187 -2.82812,-1.17187z"></path></g></g></g></svg>