<svg xmlns="http://www.w3.org/2000/svg" viewBox="0,0,256,256" width="50px" height="50px"><g fill="#656052" fill-rule="nonzero" stroke="none" stroke-width="1" stroke-linecap="butt" stroke-linejoin="miter" stroke-miterlimit="10" stroke-dasharray="" stroke-dashoffset="0" font-family="none" font-size="none" style="mix-blend-mode: normal"><g transform="scale(5.12,5.12)"><path d="M25,2c-12.683,0 -23,10.318 -23,23c0,12.682 10.317,23 23,23c12.683,0 23,-10.318 23,-23c0,-12.682 -10.317,-23 -23,-23zM25,8c0.553,0 1,0.448 1,1v16c0,0.552 -0.447,1 -1,1c-0.553,0 -1,-0.448 -1,-1v-16c0,-0.552 0.447,-1 1,-1zM30.01563,8.83398c0.12952,-0.01009 0.26158,0.00558 0.39258,0.04883c6.933,2.327 11.5918,8.80419 11.5918,16.11719c0,9.374 -7.626,17 -17,17c-9.374,0 -17,-7.626 -17,-17c0,-7.313 4.6588,-13.78923 11.5918,-16.11523c0.523,-0.174 1.08963,0.10491 1.26563,0.62891c0.176,0.524 -0.10491,1.09158 -0.62891,1.26758c-6.118,2.052 -10.22852,7.76575 -10.22852,14.21875c0,8.271 6.729,15 15,15c8.271,0 15,-6.729 15,-15c0,-6.453 -4.11052,-12.1677 -10.22852,-14.2207c-0.523,-0.176 -0.80491,-0.74162 -0.62891,-1.26563c0.13275,-0.39225 0.4845,-0.64941 0.87305,-0.67969z"></path></g></g></svg>