<svg xmlns="http://www.w3.org/2000/svg" xmlns:xlink="http://www.w3.org/1999/xlink" viewBox="0,0,256,256" width="50px" height="50px"><g fill="#e2a300" fill-rule="nonzero" stroke="none" stroke-width="1" stroke-linecap="butt" stroke-linejoin="miter" stroke-miterlimit="10" stroke-dasharray="" stroke-dashoffset="0" font-family="none" font-weight="none" font-size="none" text-anchor="none" style="mix-blend-mode: normal"><g transform="scale(5.12,5.12)"><path d="M24.375,4c-1.79687,0 -3.67578,1.42188 -4.4375,3.375l-0.625,1.625h-5.3125v-1c0,-0.55469 -0.44531,-1 -1,-1h-7c-0.55469,0 -1,0.44531 -1,1v1.28125c-2.94141,0.86719 -5,3.58203 -5,6.71875v21c0,3.85938 3.14063,7 7,7h36c3.85938,0 7,-3.14062 7,-7v-21c0,-3.85937 -3.14062,-7 -7,-7h-2.3125l-0.625,-1.625c-0.76172,-1.95312 -2.64062,-3.375 -4.4375,-3.375zM30,13c7.16797,0 13,5.83203 13,13c0,7.16797 -5.83203,13 -13,13c-7.16797,0 -13,-5.83203 -13,-13c0,-7.16797 5.83203,-13 13,-13zM7,14c1.10547,0 2,0.89453 2,2c0,1.10547 -0.89453,2 -2,2c-1.10547,0 -2,-0.89453 -2,-2c0,-1.10547 0.89453,-2 2,-2zM30,15c-6.06641,0 -11,4.93359 -11,11c0,6.06641 4.93359,11 11,11c6.06641,0 11,-4.93359 11,-11c0,-6.06641 -4.93359,-11 -11,-11z"></path></g></g></svg>