<svg xmlns="http://www.w3.org/2000/svg"  viewBox="0 0 50 50" width="50px" height="50px"><path d="M 14 4 C 8.4886661 4 4 8.4886661 4 14 L 4 36 C 4 41.511334 8.4886661 46 14 46 L 36 46 C 41.511334 46 46 41.511334 46 36 L 46 14 C 46 8.4886661 41.511334 4 36 4 L 14 4 z M 14 6 L 36 6 C 40.430666 6 44 9.5693339 44 14 L 44 36 C 44 40.430666 40.430666 44 36 44 L 14 44 C 9.5693339 44 6 40.430666 6 36 L 6 14 C 6 9.5693339 9.5693339 6 14 6 z M 21.132812 12 C 20.079884 12 19.101556 12.55485 18.560547 13.457031 L 16.724609 16.513672 C 16.542289 16.815645 16.218154 17 15.867188 17 L 11 17 C 9.9069372 17 9 17.906937 9 19 L 9 35 C 9 36.093063 9.9069372 37 11 37 L 39 37 C 40.093063 37 41 36.093063 41 35 L 41 19 C 41 17.906937 40.093063 17 39 17 L 34.132812 17 C 33.779742 17 33.456382 16.817444 33.275391 16.515625 A 1.0001 1.0001 0 0 0 33.275391 16.513672 L 31.439453 13.457031 C 30.898444 12.55485 29.919615 12 28.867188 12 L 21.132812 12 z M 12 14 C 11.448 14 11 14.448 11 15 L 11 16 L 15 16 L 15 15 C 15 14.448 14.552 14 14 14 L 12 14 z M 21.132812 14 L 28.867188 14 C 29.21876 14 29.543618 14.182556 29.724609 14.484375 A 1.0001 1.0001 0 0 0 29.724609 14.486328 L 31.558594 17.542969 C 32.099603 18.445103 33.079884 19 34.132812 19 L 39 19 L 39 35 L 11 35 L 11 19 L 15.867188 19 C 16.919615 19 17.897599 18.446016 18.439453 17.544922 A 1.0001 1.0001 0 0 0 18.441406 17.542969 L 20.275391 14.486328 A 1.0001 1.0001 0 0 0 20.275391 14.484375 C 20.456335 14.18265 20.779742 14 21.132812 14 z M 25 20 C 21.145849 20 18 23.145852 18 27 C 18 30.854148 21.145849 34 25 34 C 28.854151 34 32 30.854148 32 27 C 32 23.145852 28.854151 20 25 20 z M 34 20 A 1 1 0 0 0 34 22 A 1 1 0 0 0 34 20 z M 25 22 C 27.773271 22 30 24.226731 30 27 C 30 29.773269 27.773271 32 25 32 C 22.226729 32 20 29.773269 20 27 C 20 24.226731 22.226729 22 25 22 z"/></svg>