<svg xmlns="http://www.w3.org/2000/svg" viewBox="0,0,256,256" width="30px" height="30px"><g transform="translate(-3.84,-3.84) scale(1.03,1.03)"><g fill="#e2a300" fill-rule="nonzero" stroke="none" stroke-width="1" stroke-linecap="butt" stroke-linejoin="miter" stroke-miterlimit="10" stroke-dasharray="" stroke-dashoffset="0" font-family="none" font-size="none" style="mix-blend-mode: normal"><g transform="scale(8.53333,8.53333)"><path d="M14.03516,1.96484c-1.105,0 -2,0.895 -2,2v15h-4.07031c-0.404,0 -0.76983,0.24123 -0.92383,0.61523c-0.156,0.374 -0.0692,0.8048 0.2168,1.0918l7.07031,7.07031c0.391,0.391 1.02306,0.391 1.41406,0l7.07227,-7.07031c0.191,-0.191 0.29297,-0.44703 0.29297,-0.70703c0,-0.129 -0.02517,-0.26077 -0.07617,-0.38477c-0.154,-0.374 -0.51983,-0.61523 -0.92383,-0.61523h-4.07227v-15c0,-1.105 -0.895,-2 -2,-2z"></path></g></g></g></svg>